<svg xmlns="http://www.w3.org/2000/svg" viewBox="116 184 2330 1073" role="img" aria-labelledby="proud-logo-title"><title id="proud-logo-title">proud</title><path fill="#ed0677" fill-rule="evenodd" d="m2444.4 185v802.1h-157.3v-23.8c-33.6 15.3-70.9 23.8-110.1 23.8-116.1 0-215-74.3-251.9-177.8v177.8h-157.4v-23.8c-33.5 15.3-70.8 23.8-110 23.8-73.6 0-140.4-29.8-188.8-78.1-48.4 48.3-115.1 78.1-188.7 78.1-147.5 0-267.4-119.9-267.4-267.3 0-60.7-49.4-110.1-110.1-110.1-60.7 0-110.1 49.4-110.1 110.1v267.3h-157.3v-177.8c-36.9 103.5-135.9 177.8-251.9 177.8-39.3 0-76.5-8.5-110.1-23.8v292.4h-157.3v-803.3h157.3v23.8c33.6-15.2 70.8-23.8 110.1-23.8 116 0 215 74.3 251.9 177.9v-177.9h157.3v23.8c33.6-15.2 70.9-23.8 110.1-23.8 73.6 0 140.3 29.9 188.7 78.2 48.4-48.3 115.2-78.2 188.8-78.2 147.4 0 267.4 119.9 267.4 267.4 0 60.7 49.4 110.1 110.1 110.1 60.7 0 110-49.4 110-110.1v-267.4h157.4v177.8c36.9-103.5 135.8-177.8 251.9-177.8 39.2 0 76.5 8.6 110.1 23.8v-291.2zm-1950.9 534.8c0-60.9-49.2-110.1-110.1-110.1-60.9 0-110.1 49.2-110.1 110.1 0 60.8 49.2 110.1 110.1 110.1 60.9 0 110.1-49.3 110.1-110.1zm896.8 0c0-60.9-49.2-110.1-110.1-110.1-60.9 0-110.1 49.2-110.1 110.1 0 60.8 49.2 110.1 110.1 110.1 60.9 0 110.1-49.3 110.1-110.1zm896.8 0c0-60.9-49.2-110.1-110.1-110.1-60.9 0-110.1 49.2-110.1 110.1 0 60.8 49.2 110.1 110.1 110.1 60.9 0 110.1-49.3 110.1-110.1z"/></svg>
